<?xml version="1.0" encoding="UTF-8" standalone="no"?>
<svg
   xmlns:dc="http://purl.org/dc/elements/1.1/"
   xmlns:cc="http://creativecommons.org/ns#"
   xmlns:rdf="http://www.w3.org/1999/02/22-rdf-syntax-ns#"
   xmlns:svg="http://www.w3.org/2000/svg"
   xmlns="http://www.w3.org/2000/svg"
   xmlns:sodipodi="http://sodipodi.sourceforge.net/DTD/sodipodi-0.dtd"
   xmlns:inkscape="http://www.inkscape.org/namespaces/inkscape"
   enable-background="new 0 0 91 91"
   height="91px"
   id="Layer_1"
   version="1.1"
   viewBox="0 0 91 91"
   width="91px"
   xml:space="preserve"
   inkscape:version="0.91 r13725"
   sodipodi:docname="icon.svg"><metadata
     id="metadata23"><rdf:RDF><cc:Work
         rdf:about=""><dc:format>image/svg+xml</dc:format><dc:type
           rdf:resource="http://purl.org/dc/dcmitype/StillImage" /></cc:Work></rdf:RDF></metadata><defs
     id="defs21" /><sodipodi:namedview
     pagecolor="#ffffff"
     bordercolor="#666666"
     borderopacity="1"
     objecttolerance="10"
     gridtolerance="10"
     guidetolerance="10"
     inkscape:pageopacity="0"
     inkscape:pageshadow="2"
     inkscape:window-width="1920"
     inkscape:window-height="1014"
     id="namedview19"
     showgrid="false"
     inkscape:snap-bbox="true"
     inkscape:bbox-paths="true"
     inkscape:bbox-nodes="true"
     inkscape:snap-bbox-edge-midpoints="true"
     inkscape:object-paths="true"
     inkscape:snap-intersection-paths="true"
     inkscape:snap-page="false"
     inkscape:object-nodes="true"
     inkscape:zoom="7.3352615"
     inkscape:cx="32.90305"
     inkscape:cy="51.496673"
     inkscape:window-x="0"
     inkscape:window-y="0"
     inkscape:window-maximized="1"
     inkscape:current-layer="Layer_1" /><path
     inkscape:connector-curvature="0"
     id="path5"
     d="m 24.4,74.818 42.783,0 c 0.939,0 1.699,-0.762 1.699,-1.701 l 0,-40.515 0,-10.766 c 0,-0.938 -0.76,-1.699 -1.699,-1.699 l -42.783,0 c -0.939,0 -1.699,0.761 -1.699,1.699 l 0,10.766 0,40.516 c 0,0.939 0.76,1.7 1.699,1.7 z m 1.702,-51.282 39.381,0 0,13.366 -39.381,0 z m 0,16.766 39.381,0 0,31.116 -39.381,0 z"
     sodipodi:nodetypes="ssscsssscsscccccccccc" /><g
     style="font-style:normal;font-weight:normal;font-size:12.5px;line-height:125%;font-family:sans-serif;letter-spacing:0px;word-spacing:0px;fill:#000000;fill-opacity:1;stroke:none;stroke-width:1px;stroke-linecap:butt;stroke-linejoin:miter;stroke-opacity:1"
     id="text3358"><path
       d="m 28.9706,28.929022 0.604248,0 0,-2.085571 -0.657348,0.131835 0,-0.336914 0.653686,-0.131836 0.369873,0 0,2.422486 0.604248,0 0,0.311279 -1.574707,0 0,-0.311279 z"
       style="font-size:3.75px"
       id="path3491" /><path
       d="m 31.358295,28.929022 0.604248,0 0,-2.085571 -0.657348,0.131835 0,-0.336914 0.653686,-0.131836 0.369873,0 0,2.422486 0.604248,0 0,0.311279 -1.574707,0 0,-0.311279 z"
       style="font-size:3.75px"
       id="path3493" /><path
       d="m 34.939838,28.929022 0.604248,0 0,-2.085571 -0.657348,0.131835 0,-0.336914 0.653686,-0.131836 0.369873,0 0,2.422486 0.604248,0 0,0.311279 -1.574707,0 0,-0.311279 z"
       style="font-size:3.75px"
       id="path3495" /><path
       d="m 38.384052,27.766302 q 0.265503,0.05676 0.413819,0.236206 0.150146,0.179444 0.150146,0.443115 0,0.404663 -0.27832,0.626221 -0.278321,0.221558 -0.791016,0.221558 -0.172119,0 -0.355224,-0.03479 -0.181275,-0.03296 -0.375367,-0.100708 l 0,-0.357056 q 0.153809,0.08972 0.336914,0.135498 0.183106,0.04578 0.382691,0.04578 0.3479,0 0.529175,-0.137329 0.183105,-0.137329 0.183105,-0.39917 0,-0.241699 -0.170288,-0.377197 -0.168457,-0.137329 -0.470581,-0.137329 l -0.318604,0 0,-0.303955 0.333252,0 q 0.272828,0 0.417481,-0.108032 0.144653,-0.109864 0.144653,-0.314942 0,-0.210571 -0.150146,-0.322265 -0.148316,-0.113526 -0.426636,-0.113526 -0.151978,0 -0.325928,0.03296 -0.17395,0.03296 -0.38269,0.102539 l 0,-0.329589 q 0.210571,-0.05859 0.393677,-0.08789 0.184936,-0.0293 0.3479,-0.0293 0.421143,0 0.666504,0.192261 0.245361,0.190429 0.245361,0.516357 0,0.227051 -0.130005,0.384522 -0.130005,0.155639 -0.369873,0.216064 z"
       style="font-size:3.75px"
       id="path3497" /><path
       d="m 40.909077,28.929022 0.604248,0 0,-2.085571 -0.657349,0.131835 0,-0.336914 0.653687,-0.131836 0.369873,0 0,2.422486 0.604248,0 0,0.311279 -1.574707,0 0,-0.311279 z"
       style="font-size:3.75px"
       id="path3499" /><path
       d="m 43.139301,26.506536 1.757813,0 0,0.157471 -0.992432,2.576294 -0.386352,0 0.933838,-2.422485 -1.312867,0 0,-0.31128 z"
       style="font-size:3.75px"
       id="path3501" /><path
       d="m 46.878315,28.929022 0.604248,0 0,-2.085571 -0.657349,0.131835 0,-0.336914 0.653687,-0.131836 0.369873,0 0,2.422486 0.604248,0 0,0.311279 -1.574707,0 0,-0.311279 z"
       style="font-size:3.75px"
       id="path3503" /><path
       d="m 49.21291,29.183538 0,-0.336914 q 0.13916,0.06592 0.281982,0.100708 0.142822,0.03479 0.280151,0.03479 0.366211,0 0.558472,-0.245361 0.194092,-0.247192 0.221558,-0.748901 -0.106201,0.15747 -0.269165,0.241699 -0.162964,0.08423 -0.360718,0.08423 -0.410156,0 -0.650024,-0.247192 -0.238038,-0.249023 -0.238038,-0.679321 0,-0.421143 0.249024,-0.675659 0.249023,-0.254517 0.662842,-0.254517 0.474243,0 0.723266,0.36438 0.250855,0.362549 0.250855,1.054687 0,0.646363 -0.307617,1.032715 -0.305787,0.384522 -0.823975,0.384522 -0.13916,0 -0.281982,-0.02747 -0.142823,-0.02747 -0.296631,-0.0824 z m 0.736084,-1.159057 q 0.249023,0 0.393676,-0.170288 0.146485,-0.170288 0.146485,-0.466919 0,-0.2948 -0.146485,-0.465088 -0.144653,-0.172119 -0.393676,-0.172119 -0.249024,0 -0.395508,0.172119 -0.144653,0.170288 -0.144653,0.465088 0,0.296631 0.144653,0.466919 0.146484,0.170288 0.395508,0.170288 z"
       style="font-size:3.75px"
       id="path3505" /><path
       d="m 53.10207,28.929022 1.290893,0 0,0.311279 -1.735839,0 0,-0.311279 q 0.210571,-0.217896 0.57312,-0.584107 0.36438,-0.368042 0.457763,-0.474243 0.177613,-0.199585 0.247193,-0.336914 0.07141,-0.13916 0.07141,-0.272827 0,-0.217895 -0.153809,-0.355225 -0.151977,-0.137329 -0.397339,-0.137329 -0.17395,0 -0.368042,0.06042 -0.19226,0.06043 -0.411987,0.183106 l 0,-0.373536 q 0.223389,-0.08972 0.417481,-0.135498 0.194091,-0.04578 0.355224,-0.04578 0.424805,0 0.67749,0.212402 0.252686,0.212403 0.252686,0.567627 0,0.168457 -0.06409,0.320435 -0.06226,0.150146 -0.228882,0.355224 -0.04578,0.0531 -0.291137,0.307618 -0.245362,0.252685 -0.692139,0.708618 z"
       style="font-size:3.75px"
       id="path3507" /><path
       d="m 56.291767,27.766302 q 0.265503,0.05676 0.413818,0.236206 0.150147,0.179444 0.150147,0.443115 0,0.404663 -0.27832,0.626221 -0.278321,0.221558 -0.791016,0.221558 -0.172119,0 -0.355225,-0.03479 -0.181274,-0.03296 -0.375366,-0.100708 l 0,-0.357056 q 0.153809,0.08972 0.336914,0.135498 0.183106,0.04578 0.382691,0.04578 0.3479,0 0.529175,-0.137329 0.183105,-0.137329 0.183105,-0.39917 0,-0.241699 -0.170288,-0.377197 -0.168457,-0.137329 -0.470581,-0.137329 l -0.318604,0 0,-0.303955 0.333252,0 q 0.272827,0 0.417481,-0.108032 0.144653,-0.109864 0.144653,-0.314942 0,-0.210571 -0.150146,-0.322265 -0.148316,-0.113526 -0.426636,-0.113526 -0.151978,0 -0.325928,0.03296 -0.17395,0.03296 -0.38269,0.102539 l 0,-0.329589 q 0.210571,-0.05859 0.393676,-0.08789 0.184937,-0.0293 0.347901,-0.0293 0.421142,0 0.666504,0.192261 0.245361,0.190429 0.245361,0.516357 0,0.227051 -0.130005,0.384522 -0.130005,0.155639 -0.369873,0.216064 z"
       style="font-size:3.75px"
       id="path3509" /><path
       d="m 59.071308,28.929022 1.290894,0 0,0.311279 -1.73584,0 0,-0.311279 q 0.210571,-0.217896 0.57312,-0.584107 0.36438,-0.368042 0.457764,-0.474243 0.177612,-0.199585 0.247192,-0.336914 0.07141,-0.13916 0.07141,-0.272827 0,-0.217895 -0.153808,-0.355225 -0.151978,-0.137329 -0.397339,-0.137329 -0.173951,0 -0.368042,0.06042 -0.192261,0.06043 -0.411988,0.183106 l 0,-0.373536 q 0.223389,-0.08972 0.417481,-0.135498 0.194092,-0.04578 0.355224,-0.04578 0.424805,0 0.677491,0.212402 0.252685,0.212403 0.252685,0.567627 0,0.168457 -0.06409,0.320435 -0.06226,0.150146 -0.228881,0.355224 -0.04578,0.0531 -0.291138,0.307618 -0.245362,0.252685 -0.692139,0.708618 z"
       style="font-size:3.75px"
       id="path3511" /><path
       d="m 61.047016,26.506536 1.757813,0 0,0.157471 -0.992432,2.576294 -0.386353,0 0.933838,-2.422485 -1.312866,0 0,-0.31128 z"
       style="font-size:3.75px"
       id="path3513" /><path
       d="m 29.225117,33.616522 1.290893,0 0,0.311279 -1.73584,0 0,-0.311279 q 0.210572,-0.217896 0.573121,-0.584107 0.364379,-0.368042 0.457763,-0.474243 0.177613,-0.199585 0.247193,-0.336914 0.07141,-0.13916 0.07141,-0.272827 0,-0.217895 -0.153809,-0.355225 -0.151977,-0.137329 -0.397339,-0.137329 -0.17395,0 -0.368042,0.06042 -0.19226,0.06043 -0.411987,0.183106 l 0,-0.373536 q 0.223389,-0.08972 0.41748,-0.135498 0.194092,-0.04578 0.355225,-0.04578 0.424805,0 0.67749,0.212402 0.252686,0.212403 0.252686,0.567627 0,0.168457 -0.06409,0.320435 -0.06226,0.150146 -0.228882,0.355224 -0.04578,0.0531 -0.291138,0.307618 -0.245361,0.252685 -0.692138,0.708618 z"
       style="font-size:3.75px"
       id="path3515" /><path
       d="m 31.305195,33.871038 0,-0.336914 q 0.13916,0.06592 0.281982,0.100708 0.142823,0.03479 0.280152,0.03479 0.366211,0 0.558471,-0.245361 0.194092,-0.247192 0.221558,-0.748901 -0.106201,0.15747 -0.269165,0.241699 -0.162964,0.08423 -0.360718,0.08423 -0.410156,0 -0.650024,-0.247192 -0.238037,-0.249023 -0.238037,-0.679321 0,-0.421143 0.249023,-0.675659 0.249023,-0.254517 0.662842,-0.254517 0.474243,0 0.723266,0.36438 0.250855,0.362549 0.250855,1.054687 0,0.646363 -0.307617,1.032715 -0.305786,0.384522 -0.823975,0.384522 -0.13916,0 -0.281982,-0.02747 -0.142823,-0.02747 -0.296631,-0.0824 z m 0.736084,-1.159057 q 0.249023,0 0.393677,-0.170288 0.146484,-0.170288 0.146484,-0.466919 0,-0.2948 -0.146484,-0.465088 -0.144654,-0.172119 -0.393677,-0.172119 -0.249024,0 -0.395508,0.172119 -0.144653,0.170288 -0.144653,0.465088 0,0.296631 0.144653,0.466919 0.146484,0.170288 0.395508,0.170288 z"
       style="font-size:3.75px"
       id="path3517" /><path
       d="m 35.996357,32.453802 q 0.265503,0.05676 0.413818,0.236206 0.150147,0.179444 0.150147,0.443115 0,0.404663 -0.278321,0.626221 -0.27832,0.221558 -0.791015,0.221558 -0.172119,0 -0.355225,-0.03479 -0.181274,-0.03296 -0.375366,-0.100708 l 0,-0.357056 q 0.153809,0.08972 0.336914,0.135498 0.183106,0.04578 0.382691,0.04578 0.3479,0 0.529174,-0.137329 0.183106,-0.137329 0.183106,-0.39917 0,-0.241699 -0.170288,-0.377197 -0.168457,-0.137329 -0.470581,-0.137329 l -0.318604,0 0,-0.303955 0.333252,0 q 0.272827,0 0.417481,-0.108032 0.144653,-0.109864 0.144653,-0.314942 0,-0.210571 -0.150147,-0.322265 -0.148315,-0.113526 -0.426635,-0.113526 -0.151978,0 -0.325928,0.03296 -0.17395,0.03296 -0.38269,0.102539 l 0,-0.329589 q 0.210571,-0.05859 0.393676,-0.08789 0.184937,-0.0293 0.347901,-0.0293 0.421142,0 0.666504,0.192261 0.245361,0.190429 0.245361,0.516357 0,0.227051 -0.130005,0.384522 -0.130005,0.155639 -0.369873,0.216064 z"
       style="font-size:3.75px"
       id="path3519" /><path
       d="m 37.327534,33.616522 0.604248,0 0,-2.085571 -0.657349,0.131835 0,-0.336914 0.653687,-0.131836 0.369873,0 0,2.422486 0.604248,0 0,0.311279 -1.574707,0 0,-0.311279 z"
       style="font-size:3.75px"
       id="path3521" /><path
       d="m 41.965595,32.453802 q 0.265503,0.05676 0.413819,0.236206 0.150146,0.179444 0.150146,0.443115 0,0.404663 -0.27832,0.626221 -0.278321,0.221558 -0.791016,0.221558 -0.172119,0 -0.355224,-0.03479 -0.181275,-0.03296 -0.375367,-0.100708 l 0,-0.357056 q 0.153809,0.08972 0.336914,0.135498 0.183106,0.04578 0.382691,0.04578 0.3479,0 0.529175,-0.137329 0.183105,-0.137329 0.183105,-0.39917 0,-0.241699 -0.170288,-0.377197 -0.168457,-0.137329 -0.470581,-0.137329 l -0.318604,0 0,-0.303955 0.333252,0 q 0.272828,0 0.417481,-0.108032 0.144653,-0.109864 0.144653,-0.314942 0,-0.210571 -0.150146,-0.322265 -0.148316,-0.113526 -0.426636,-0.113526 -0.151978,0 -0.325928,0.03296 -0.17395,0.03296 -0.38269,0.102539 l 0,-0.329589 q 0.210571,-0.05859 0.393677,-0.08789 0.184936,-0.0293 0.3479,-0.0293 0.421143,0 0.666504,0.192261 0.245361,0.190429 0.245361,0.516357 0,0.227051 -0.130005,0.384522 -0.130005,0.155639 -0.369873,0.216064 z"
       style="font-size:3.75px"
       id="path3523" /><path
       d="m 43.139301,31.194036 1.757813,0 0,0.157471 -0.992432,2.576294 -0.386352,0 0.933838,-2.422485 -1.312867,0 0,-0.31128 z"
       style="font-size:3.75px"
       id="path3525" /><path
       d="m 47.830463,31.516302 -0.933837,1.459351 0.933837,0 0,-1.459351 z m -0.09705,-0.322266 0.465087,0 0,1.781617 0.390015,0 0,0.307617 -0.390015,0 0,0.644531 -0.368042,0 0,-0.644531 -1.23413,0 0,-0.357056 1.137085,-1.732178 z"
       style="font-size:3.75px"
       id="path3527" /><path
       d="m 49.26601,33.616522 0.604248,0 0,-2.085571 -0.657348,0.131835 0,-0.336914 0.653686,-0.131836 0.369873,0 0,2.422486 0.604248,0 0,0.311279 -1.574707,0 0,-0.311279 z"
       style="font-size:3.75px"
       id="path3529" /><path
       d="m 53.799702,31.516302 -0.933838,1.459351 0.933838,0 0,-1.459351 z m -0.09705,-0.322266 0.465088,0 0,1.781617 0.390014,0 0,0.307617 -0.390014,0 0,0.644531 -0.368042,0 0,-0.644531 -1.234131,0 0,-0.357056 1.137085,-1.732178 z"
       style="font-size:3.75px"
       id="path3531" /><path
       d="m 56.291767,32.453802 q 0.265503,0.05676 0.413818,0.236206 0.150147,0.179444 0.150147,0.443115 0,0.404663 -0.27832,0.626221 -0.278321,0.221558 -0.791016,0.221558 -0.172119,0 -0.355225,-0.03479 -0.181274,-0.03296 -0.375366,-0.100708 l 0,-0.357056 q 0.153809,0.08972 0.336914,0.135498 0.183106,0.04578 0.382691,0.04578 0.3479,0 0.529175,-0.137329 0.183105,-0.137329 0.183105,-0.39917 0,-0.241699 -0.170288,-0.377197 -0.168457,-0.137329 -0.470581,-0.137329 l -0.318604,0 0,-0.303955 0.333252,0 q 0.272827,0 0.417481,-0.108032 0.144653,-0.109864 0.144653,-0.314942 0,-0.210571 -0.150146,-0.322265 -0.148316,-0.113526 -0.426636,-0.113526 -0.151978,0 -0.325928,0.03296 -0.17395,0.03296 -0.38269,0.102539 l 0,-0.329589 q 0.210571,-0.05859 0.393676,-0.08789 0.184937,-0.0293 0.347901,-0.0293 0.421142,0 0.666504,0.192261 0.245361,0.190429 0.245361,0.516357 0,0.227051 -0.130005,0.384522 -0.130005,0.155639 -0.369873,0.216064 z"
       style="font-size:3.75px"
       id="path3533" /><path
       d="m 59.76894,31.516302 -0.933838,1.459351 0.933838,0 0,-1.459351 z m -0.09705,-0.322266 0.465088,0 0,1.781617 0.390015,0 0,0.307617 -0.390015,0 0,0.644531 -0.368042,0 0,-0.644531 -1.234131,0 0,-0.357056 1.137085,-1.732178 z"
       style="font-size:3.75px"
       id="path3535" /><path
       d="m 61.047016,31.194036 1.757813,0 0,0.157471 -0.992432,2.576294 -0.386353,0 0.933838,-2.422485 -1.312866,0 0,-0.31128 z"
       style="font-size:3.75px"
       id="path3537" /></g><rect
     style="fill:#000000"
     id="rect3372"
     width="15.5"
     height="4"
     x="29.101999"
     y="43.301998" /><rect
     style="fill:#000000"
     id="rect3372-2"
     width="15.5"
     height="4"
     x="29.101999"
     y="50.340664" /><rect
     style="fill:#000000"
     id="rect3372-6"
     width="15.5"
     height="4"
     x="29.101999"
     y="57.379333" /><rect
     style="fill:#000000"
     id="rect3372-1"
     width="15.5"
     height="4"
     x="29.101999"
     y="64.417999" /><rect
     style="fill:#000000"
     id="rect3372-8"
     width="15.5"
     height="4"
     x="46.983002"
     y="43.301998" /><rect
     style="fill:#000000"
     id="rect3372-7"
     width="15.5"
     height="4"
     x="46.983002"
     y="50.340664" /><rect
     style="fill:#000000"
     id="rect3372-9"
     width="15.5"
     height="4"
     x="46.983002"
     y="57.379333" /><rect
     style="fill:#000000"
     id="rect3372-20"
     width="15.5"
     height="4"
     x="46.983002"
     y="64.417999" /></svg>